<svg fill="#1C2033" width="52" height="52" viewBox="0 0 64 64" xmlns="http://www.w3.org/2000/svg"><path d="M32 28.0008C24.5 28.0008 18.5 22.1008 18.5 14.9008C18.5 7.70078 24.5 1.80078 32 1.80078C39.5 1.80078 45.5 7.70078 45.5 14.9008C45.5 22.1008 39.5 28.0008 32 28.0008ZM32 6.30078C27 6.30078 23 10.2008 23 14.9008C23 19.6008 27 23.5008 32 23.5008C37 23.5008 41 19.6008 41 14.9008C41 10.2008 37 6.30078 32 6.30078Z"/><path d="M51.6992 62.3004H12.2992C10.2992 62.3004 8.69922 60.7004 8.69922 58.7004V49.7004C8.69922 39.9004 16.6992 31.9004 26.4992 31.9004H37.5992C47.3992 31.9004 55.3992 39.9004 55.3992 49.7004V58.7004C55.2992 60.6004 53.6992 62.3004 51.6992 62.3004ZM13.1992 57.8004H50.8992V49.7004C50.8992 42.4004 44.8992 36.4004 37.5992 36.4004H26.3992C19.0992 36.4004 13.0992 42.4004 13.0992 49.7004V57.8004H13.1992Z"/></svg>